<?xml version="1.0" encoding="UTF-8" standalone="no"?>
<!-- Created with Inkscape (http://www.inkscape.org/) -->

<svg
   xmlns:dc="http://purl.org/dc/elements/1.1/"
   xmlns:cc="http://creativecommons.org/ns#"
   xmlns:rdf="http://www.w3.org/1999/02/22-rdf-syntax-ns#"
   xmlns:svg="http://www.w3.org/2000/svg"
   xmlns="http://www.w3.org/2000/svg"
   xmlns:sodipodi="http://sodipodi.sourceforge.net/DTD/sodipodi-0.dtd"
   xmlns:inkscape="http://www.inkscape.org/namespaces/inkscape"
   width="316.90469mm"
   height="251.93069mm"
   viewBox="0 0 316.90469 251.93069"
   version="1.1"
   id="svg8"
   inkscape:version="0.92.3 (2405546, 2018-03-11)"
   sodipodi:docname="logo.svg"
   inkscape:export-filename="./logo.png"
   inkscape:export-xdpi="19.962633"
   inkscape:export-ydpi="19.962633">
  <defs
     id="defs2">
    <filter
       inkscape:collect="always"
       style="color-interpolation-filters:sRGB"
       id="filter904"
       x="-0.16591311"
       width="1.3318262"
       y="-0.020190476"
       height="1.040381">
      <feGaussianBlur
         inkscape:collect="always"
         stdDeviation="0.84991688"
         id="feGaussianBlur906" />
    </filter>
    <filter
       inkscape:collect="always"
       style="color-interpolation-filters:sRGB"
       id="filter914"
       x="-0.037523065"
       width="1.0750461"
       y="-0.034595758"
       height="1.0691915">
      <feGaussianBlur
         inkscape:collect="always"
         stdDeviation="0.54322545"
         id="feGaussianBlur916" />
    </filter>
    <filter
       inkscape:collect="always"
       style="color-interpolation-filters:sRGB"
       id="filter980"
       x="-0.065106392"
       width="1.1302128"
       y="-0.055636358"
       height="1.1112727">
      <feGaussianBlur
         inkscape:collect="always"
         stdDeviation="0.96383937"
         id="feGaussianBlur982" />
    </filter>
    <filter
       inkscape:collect="always"
       style="color-interpolation-filters:sRGB"
       id="filter987"
       x="-0.027631763"
       width="1.0552635"
       y="-0.0516387"
       height="1.1032774">
      <feGaussianBlur
         inkscape:collect="always"
         stdDeviation="0.54787917"
         id="feGaussianBlur989" />
    </filter>
    <filter
       inkscape:collect="always"
       style="color-interpolation-filters:sRGB"
       id="filter1112"
       x="-0.30000001"
       width="1.6"
       y="-0.30000001"
       height="1.6">
      <feGaussianBlur
         inkscape:collect="always"
         stdDeviation="2.6726952"
         id="feGaussianBlur1114" />
    </filter>
    <filter
       inkscape:collect="always"
       style="color-interpolation-filters:sRGB"
       id="filter1116"
       x="-0.30000001"
       width="1.6"
       y="-0.30000001"
       height="1.6">
      <feGaussianBlur
         inkscape:collect="always"
         stdDeviation="2.6726952"
         id="feGaussianBlur1118" />
    </filter>
  </defs>
  <sodipodi:namedview
     id="base"
     pagecolor="#ffffff"
     bordercolor="#666666"
     borderopacity="1.0"
     inkscape:pageopacity="1"
     inkscape:pageshadow="2"
     inkscape:zoom="0.175"
     inkscape:cx="1477.5239"
     inkscape:cy="1618.8564"
     inkscape:document-units="mm"
     inkscape:current-layer="layer1"
     showgrid="false"
     inkscape:snap-global="false"
     inkscape:window-width="1440"
     inkscape:window-height="832"
     inkscape:window-x="0"
     inkscape:window-y="208"
     inkscape:window-maximized="1"
     fit-margin-top="5"
     fit-margin-left="5"
     fit-margin-right="5"
     fit-margin-bottom="5" />
  <metadata
     id="metadata5">
    <rdf:RDF>
      <cc:Work
         rdf:about="">
        <dc:format>image/svg+xml</dc:format>
        <dc:type
           rdf:resource="http://purl.org/dc/dcmitype/StillImage" />
        <dc:title></dc:title>
      </cc:Work>
    </rdf:RDF>
  </metadata>
  <g
     inkscape:label="Layer 1"
     inkscape:groupmode="layer"
     id="layer1"
     transform="translate(464.44731,-295.94498)">
    <g
       id="g1163">
      <path
         sodipodi:nodetypes="cccccccccccccsc"
         inkscape:connector-curvature="0"
         id="path849"
         d="m -423.36141,385.68916 c -3.99881,-0.0848 6.29537,10.27315 7.49441,17.16278 -2.68957,21.49532 -4.26758,53.63236 -6.5474,75.17009 10.48313,37.21353 52.26719,36.66003 80.16203,40.96286 6.61241,0.28337 14.1005,1.4497 20.59203,0.50697 l -3.77187,15.34014 c 54.75501,-7.19365 110.7774,-10.5459 164.11712,-0.75602 l -15.72359,-42.71162 -115.28289,-11.33884 -6.87813,7.80728 c -7.54688,-0.10674 -16.95975,0.2935 -23.42545,0.93896 -18.55834,-5.3056 -64.65888,-1.83281 -69.15133,-17.09302 1.18283,-17.75627 4.58753,-55.68241 5.43078,-73.46844 6.93304,-9.8649 -0.18313,-24.58392 -13.49918,-24.98433 -6.62288,-0.19915 -15.58403,7.9714 -23.51653,12.46319 z"
         style="fill:#54821f;fill-opacity:1;stroke:#000000;stroke-width:0.26458332px;stroke-linecap:butt;stroke-linejoin:miter;stroke-opacity:1" />
      <path
         sodipodi:nodetypes="cccccccccccccc"
         inkscape:connector-curvature="0"
         id="path847"
         d="m -278.49485,462.7071 c -21.81376,17.40252 -35.1644,39.74187 -48.64305,62.00654 12.2944,-2.38779 24.58879,-24.30823 36.88319,-37.41774 l -16.57071,46.50488 40.09043,-44.36673 -2.13816,52.91936 32.07235,-51.31574 11.75986,50.24667 21.38156,-48.10851 c 8.66176,17.30682 16.37512,35.86112 27.26149,44.90128 l -1.06907,-37.15047 c 6.19961,12.58367 10.2074,26.48245 18.70886,37.68501 -7.99991,-21.80566 -2.16163,-44.79745 -32.60688,-64.67923 z"
         style="fill:#798636;fill-opacity:1;stroke:#000000;stroke-width:0.26458332px;stroke-linecap:butt;stroke-linejoin:miter;stroke-opacity:1" />
      <g
         transform="translate(-312.20304,201.92415)"
         id="g845">
        <path
           style="fill:#54821f;fill-opacity:1;stroke:#000000;stroke-width:0.26458332px;stroke-linecap:butt;stroke-linejoin:miter;stroke-opacity:1"
           d="m -25.914029,138.01707 c -8.663075,-9.53726 25.10599159,-7.19312 36.35769,-13.12216 10.962231,-9.24062 25.363639,-10.76119 39.280602,-11.53782 12.242596,-0.5978 27.835333,0.65396 33.493702,13.32114 10.649129,20.13544 40.127575,40.26812 36.763825,59.47038 -2.04009,32.32576 2.31354,62.60959 0.47545,91.28431 -21.582994,2.7351 -72.113744,2.37723 -85.180842,-15.07801 -8.085159,-36.45878 -32.7561662,-61.56519 -52.611312,-87.87648 -6.044295,-2.64481 -23.783268,-21.31172 -10.389587,-24.08823 23.6973754,5.06258 15.370361,0.13465 1.810472,-12.37313 z"
           id="path837"
           inkscape:connector-curvature="0"
           sodipodi:nodetypes="cccccccccc" />
        <ellipse
           style="opacity:1;fill:#ffffff;fill-opacity:1;stroke:#4d4d4d;stroke-width:0.75;stroke-linecap:round;stroke-linejoin:bevel;stroke-miterlimit:4;stroke-dasharray:none;stroke-dashoffset:0;stroke-opacity:1"
           id="path841"
           cx="89.228981"
           cy="98.824547"
           rx="24.374983"
           ry="18.718534"
           transform="rotate(15)" />
        <path
           sodipodi:nodetypes="cscc"
           inkscape:connector-curvature="0"
           id="ellipse984"
           d="m 113.60396,98.824547 c 0,10.337963 -10.91305,18.718533 -24.374979,18.718533 -13.461931,0 -24.374982,-8.38057 -24.374983,-18.718533 15.302421,24.799123 38.080302,9.679913 48.749962,0 z"
           style="opacity:0.25;fill:#000000;fill-opacity:1;stroke:none;stroke-width:0.7339465;stroke-linecap:round;stroke-linejoin:bevel;stroke-miterlimit:4;stroke-dasharray:none;stroke-dashoffset:0;stroke-opacity:1;filter:url(#filter987)"
           transform="matrix(0.96592583,0.27026507,-0.25881905,1.008643,-1.0583334,-3.0345831)" />
      </g>
      <g
         transform="translate(-315.37804,241.61165)"
         id="g863">
        <path
           style="opacity:1;fill:#e6e6e6;stroke:#b3b3b3;stroke-width:0.26499999;stroke-linecap:round;stroke-linejoin:miter;stroke-miterlimit:4;stroke-dasharray:none;stroke-opacity:1"
           d="M -24.190476,108.0119 C -45.134725,96.554201 -62.846615,91.92037 -92.22619,62.654761 l -28.08027,35.410515 c 2.87551,37.456764 30.973005,31.099644 89.879378,20.529954 z"
           id="path857"
           inkscape:connector-curvature="0"
           sodipodi:nodetypes="ccccc" />
        <path
           style="opacity:0.95;fill:#672411;fill-opacity:1;stroke:#000000;stroke-width:0.26458332px;stroke-linecap:round;stroke-linejoin:miter;stroke-opacity:1"
           d="m -120.27129,97.616932 94.078877,14.432548 c -21.930304,92.40819 -126.153157,34.61949 -94.078877,-14.432548 z"
           id="path859"
           inkscape:connector-curvature="0"
           sodipodi:nodetypes="ccc" />
      </g>
      <path
         inkscape:connector-curvature="0"
         id="path930"
         d="m -244.17262,400.56548 31.75,-16.63096 -35.52976,41.57739 z"
         style="opacity:0.25;fill:#000000;stroke:none;stroke-width:0.26458332px;stroke-linecap:butt;stroke-linejoin:miter;stroke-opacity:1;filter:url(#filter980)" />
      <path
         sodipodi:nodetypes="ccccccc"
         inkscape:connector-curvature="0"
         id="path867"
         d="m -305.6112,342.04325 c -8.71557,0.14571 -15.44949,3.37304 -18.66759,8.94674 -6.57539,11.38941 3.04259,29.25269 21.48241,39.89886 10.21794,5.88777 32.64682,8.56098 41.82845,7.25588 3.22544,20.23243 -7.19265,58.93255 7.20372,68.01683 43.47772,-18.72778 -4.68718,-103.59048 -25.21967,-116.51723 -8.68647,-5.01498 -18.23809,-7.7416 -26.62732,-7.60108 z"
         style="opacity:1;fill:#facccf;fill-opacity:1;stroke:#000000;stroke-width:0.5;stroke-linecap:round;stroke-linejoin:bevel;stroke-miterlimit:4;stroke-dasharray:none;stroke-dashoffset:0;stroke-opacity:1" />
      <path
         sodipodi:nodetypes="csssssssscc"
         inkscape:connector-curvature="0"
         id="path874"
         d="m -323.77689,350.04628 c 0,0 52.41207,4.2897 59.83873,24.52673 1.86699,5.08736 -7.48354,14.43255 -7.48354,14.43255 -1.96046,3.78089 -8.53258,-1.046 -6.41447,-3.74177 0,0 6.63499,-4.40232 5.87993,-7.48355 -2.88503,-11.77312 -21.59503,-18.65635 -33.14142,-14.96709 -2.35792,0.75339 -1.98968,5.87093 -3.74178,6.41447 -2.03887,0.63251 -6.19814,0.0572 -4.81085,-2.67269 0,0 3.92712,-3.91301 3.01825,-5.93922 -2.18469,-4.87047 -15.48681,-4.07529 -15.48681,-4.07529 0.0937,-2.35892 0.89096,-4.7051 2.34196,-6.49414 z"
         style="fill:#feecea;fill-opacity:1;stroke:#000000;stroke-width:0.5;stroke-linecap:butt;stroke-linejoin:miter;stroke-opacity:1" />
      <path
         sodipodi:nodetypes="ccccc"
         inkscape:connector-curvature="0"
         id="path876"
         d="m -261.31132,429.73846 c 8.04152,2.7917 16.26561,3.57508 24.81021,0.83284 l 0.36316,7.98705 c -8.55063,2.65427 -17.0014,2.71244 -25.30029,-1.17839 z"
         style="fill:#feecea;fill-opacity:1;stroke:#000000;stroke-width:0.5;stroke-linecap:butt;stroke-linejoin:miter;stroke-opacity:1" />
      <path
         style="fill:#feecea;fill-opacity:1;stroke:#000000;stroke-width:0.5;stroke-linecap:butt;stroke-linejoin:miter;stroke-opacity:1"
         d="m -260.38125,413.86345 c 8.04152,2.7917 12.42244,3.57508 20.96704,0.83284 l 1.81702,7.98705 c -8.55062,2.65427 -14.74572,2.71244 -23.04461,-1.17839 z"
         id="path878"
         inkscape:connector-curvature="0"
         sodipodi:nodetypes="ccccc" />
      <path
         sodipodi:nodetypes="ccccc"
         inkscape:connector-curvature="0"
         id="path880"
         d="m -261.44495,445.61347 c 8.04152,2.7917 15.54136,3.70871 24.08596,0.96647 -0.64968,2.83491 -1.49366,5.53989 -3.0123,7.85342 -8.55062,2.65427 -12.03844,2.71244 -20.33733,-1.17839 z"
         style="fill:#feecea;fill-opacity:1;stroke:#000000;stroke-width:0.5;stroke-linecap:butt;stroke-linejoin:miter;stroke-opacity:1" />
      <path
         sodipodi:nodetypes="cccc"
         inkscape:connector-curvature="0"
         id="path882"
         d="m -193.50313,379.31902 -11.75986,99.95879 13.63074,1.06907 z"
         style="opacity:0.25;fill:#000000;stroke:none;stroke-width:0.26458332px;stroke-linecap:butt;stroke-linejoin:miter;stroke-opacity:1;filter:url(#filter904)" />
      <path
         sodipodi:nodetypes="ccc"
         inkscape:connector-curvature="0"
         id="path908"
         d="m -326.3361,524.9809 c 15.71303,-4.29898 25.30786,-20.83436 34.74506,-37.685 z"
         style="opacity:0.25;fill:#000000;stroke:none;stroke-width:0.26458332px;stroke-linecap:butt;stroke-linejoin:miter;stroke-opacity:1;filter:url(#filter914)" />
      <path
         style="opacity:0.25;fill:#000000;stroke:none;stroke-width:0.26458332px;stroke-linecap:butt;stroke-linejoin:miter;stroke-opacity:1;filter:url(#filter914)"
         d="m -299.87777,524.22495 c 15.71303,-4.29898 25.30786,-20.83436 34.74506,-37.685 z"
         id="path918"
         inkscape:connector-curvature="0"
         sodipodi:nodetypes="ccc" />
      <path
         transform="rotate(-11.069249,-242.13736,507.34036)"
         sodipodi:nodetypes="ccc"
         inkscape:connector-curvature="0"
         id="path920"
         d="m -269.63967,529.13864 c 15.71303,-4.29898 25.30786,-20.83436 34.74506,-37.685 z"
         style="opacity:0.25;fill:#000000;stroke:none;stroke-width:0.26458332px;stroke-linecap:butt;stroke-linejoin:miter;stroke-opacity:1;filter:url(#filter914)" />
      <path
         style="opacity:0.25;fill:#000000;stroke:none;stroke-width:0.26458332px;stroke-linecap:butt;stroke-linejoin:miter;stroke-opacity:1;filter:url(#filter914)"
         d="m -269.63967,529.13864 c 15.71303,-4.29898 25.30786,-20.83436 34.74506,-37.685 z"
         id="path922"
         inkscape:connector-curvature="0"
         sodipodi:nodetypes="ccc"
         transform="matrix(-0.98139585,-0.19199527,-0.19199527,0.98139585,-341.01246,-33.648807)" />
      <path
         transform="matrix(-0.98139585,-0.19199527,-0.19199527,0.98139585,-313.79817,-22.687497)"
         sodipodi:nodetypes="ccc"
         inkscape:connector-curvature="0"
         id="path924"
         d="m -258.70506,520.49387 c 12.4091,-5.29522 12.88129,-15.89993 23.6854,-32.3384 -10.06499,8.59503 -16.81028,22.11702 -23.6854,32.3384 z"
         style="opacity:0.25;fill:#000000;stroke:none;stroke-width:0.26458332px;stroke-linecap:butt;stroke-linejoin:miter;stroke-opacity:1;filter:url(#filter914)" />
      <path
         transform="rotate(-22.494168,-217.86828,426.73996)"
         sodipodi:nodetypes="ccc"
         inkscape:connector-curvature="0"
         id="path926"
         d="m -269.63967,529.13864 c 15.71303,-4.29898 28.94466,-19.73748 38.38186,-36.58812 z"
         style="opacity:0.25;fill:#000000;stroke:none;stroke-width:0.26458332px;stroke-linecap:butt;stroke-linejoin:miter;stroke-opacity:1;filter:url(#filter914)" />
      <path
         sodipodi:nodetypes="cc"
         inkscape:connector-curvature="0"
         id="path928"
         d="m -275.9226,314.38691 c 9.57539,9.03181 19.15079,7.42014 28.72618,4.5357"
         style="fill:none;stroke:#000000;stroke-width:1.5;stroke-linecap:butt;stroke-linejoin:miter;stroke-opacity:1" />
      <path
         style="opacity:0.25;fill:#000000;stroke:none;stroke-width:0.26458332px;stroke-linecap:butt;stroke-linejoin:miter;stroke-opacity:1;filter:url(#filter904)"
         d="m -389.2948,389.90235 c 4.8592,24.15358 -25.88221,91.84188 1.87088,93.00977 -7.85277,-30.28643 0.41319,-61.76849 -1.87088,-93.00977 z"
         id="path991"
         inkscape:connector-curvature="0"
         sodipodi:nodetypes="ccc" />
      <g
         transform="translate(6.3500002)"
         id="g1127">
        <g
           id="g1122"
           transform="matrix(0.69413314,0,0,0.69413314,-154.53218,188.38087)"
           style="stroke-width:1.44064581">
          <circle
             transform="matrix(2.8092593,0,0,2.8092593,840.00047,-253.59193)"
             style="opacity:0.75;fill:#ffff00;fill-opacity:1;stroke:none;stroke-width:0.38461536;stroke-linecap:round;stroke-linejoin:bevel;stroke-miterlimit:4;stroke-dasharray:none;stroke-dashoffset:0;stroke-opacity:1;filter:url(#filter1112)"
             id="circle1074"
             cx="-441.52927"
             cy="178.86687"
             r="10.690781" />
          <circle
             r="10.690781"
             cy="248.35695"
             cx="-401.97339"
             id="path1012"
             style="opacity:1;fill:#ffffff;fill-opacity:1;stroke:none;stroke-width:2.75217748;stroke-linecap:round;stroke-linejoin:bevel;stroke-miterlimit:4;stroke-dasharray:none;stroke-dashoffset:0;stroke-opacity:1;filter:url(#filter1116)"
             transform="matrix(0.39259255,0,0,0.39259255,-244.16163,150.85386)" />
        </g>
      </g>
    </g>
  </g>
</svg>
